<svg height="512pt" viewBox="0 -63 512 511" width="512pt" xmlns="http://www.w3.org/2000/svg"><path d="m475.355469 308.050781h-438.710938v-277.53125c0-12.4375 10.085938-22.523437 22.523438-22.523437h393.664062c12.441407 0 22.523438 10.085937 22.523438 22.523437zm0 0" fill="#e7e7e7"/><path d="m475.359375 30.523438v277.527343h-27.125v-277.527343c0-12.445313-10.082031-22.523438-22.523437-22.523438h27.121093c12.4375 0 22.527344 10.078125 22.527344 22.523438zm0 0" fill="#cecece"/><path d="m435.859375 308.050781h-359.71875v-256.199219c0-4.582031 3.714844-8.296874 8.296875-8.296874h343.125c4.582031 0 8.296875 3.714843 8.296875 8.296874zm0 0" fill="#c9f0ff"/><path d="m435.859375 51.851562v256.199219h-26.316406v-256.199219c0-4.578124-3.710938-8.300781-8.300781-8.300781h26.320312c4.585938 0 8.296875 3.722657 8.296875 8.300781zm0 0" fill="#9ae7fd"/><path d="m479.957031 377.617188h-447.914062c-13.558594 0-24.546875-10.988282-24.546875-24.546876v-45.019531h497.007812v45.019531c0 13.558594-10.988281 24.546876-24.546875 24.546876zm0 0" fill="#838383"/><path d="m504.503906 308.050781v45.019531c0 13.550782-10.988281 24.546876-24.550781 24.546876h-22.433594c13.550781 0 24.539063-10.996094 24.539063-24.546876v-45.019531zm0 0" fill="#5a5a5a"/><path d="m272.097656 308.050781h-99.597656l11.761719 26.914063c.800781 1.832031 2.609375 3.015625 4.605469 3.015625h134.265624c2 0 3.808594-1.183594 4.609376-3.015625l11.761718-26.914063zm0 0" fill="#acacac"/><path d="m339.503906 308.050781-11.761718 26.914063c-.804688 1.828125-2.605469 3.015625-4.609376 3.015625h-16.226562c.160156-.25.3125-.511719.433594-.792969l12.722656-29.136719zm0 0" fill="#9c9c9c"/><path d="m236.621094 85.320312-50.210938 86.964844c-7.085937 12.273438 1.773438 27.617188 15.945313 27.617188h107.289062c14.171875 0 23.03125-15.34375 15.945313-27.617188l-50.207032-86.964844c-8.617187-14.917968-30.148437-14.917968-38.761718 0zm0 0" fill="#ffd86e"/><path d="m309.644531 199.902344h-2.578125c4.449219-5.59375 5.632813-13.652344 1.570313-20.703125l-50.210938-86.972657c-4.167969-7.203124-11.339843-10.9375-18.625-11.179687 9.898438-10.472656 27.890625-9.042969 35.574219 4.277344l50.214844 86.960937c7.082031 12.273438-1.773438 27.617188-15.945313 27.617188zm0 0" fill="#ffb509"/><path d="m115.785156 240.597656h102.363282c4.140624 0 7.496093-3.355468 7.496093-7.496094 0-4.140624-3.355469-7.5-7.496093-7.5h-102.363282c-4.140625 0-7.5 3.359376-7.5 7.5 0 4.140626 3.355469 7.496094 7.5 7.496094zm0 0"/><path d="m288.296875 240.597656c4.140625 0 7.5-3.355468 7.5-7.496094 0-4.140624-3.355469-7.5-7.5-7.5h-42.480469c-4.140625 0-7.496094 3.359376-7.496094 7.5 0 4.140626 3.355469 7.496094 7.496094 7.496094zm0 0"/><path d="m308.742188 233.101562c0 4.140626 3.359374 7.496094 7.5 7.496094h79.976562c4.140625 0 7.496094-3.355468 7.496094-7.496094 0-4.140624-3.355469-7.5-7.496094-7.5h-79.976562c-4.140626.003907-7.5 3.359376-7.5 7.5zm0 0"/><path d="m115.785156 271.511719h51.402344c4.140625 0 7.496094-3.355469 7.496094-7.496094s-3.355469-7.496094-7.496094-7.496094h-51.402344c-4.140625 0-7.5 3.355469-7.5 7.496094s3.355469 7.496094 7.5 7.496094zm0 0"/><path d="m316.242188 256.519531h-113.125c-4.140626 0-7.496094 3.355469-7.496094 7.496094s3.355468 7.496094 7.496094 7.496094h113.125c4.140624 0 7.496093-3.355469 7.496093-7.496094s-3.355469-7.496094-7.496093-7.496094zm0 0"/><path d="m396.21875 256.519531h-56.714844c-4.144531 0-7.5 3.355469-7.5 7.496094s3.355469 7.496094 7.5 7.496094h56.714844c4.140625 0 7.496094-3.355469 7.496094-7.496094s-3.355469-7.496094-7.496094-7.496094zm0 0"/><path d="m504.503906 300.554688h-21.652344v-270.035157c0-16.550781-13.464843-30.019531-30.019531-30.019531h-393.664062c-16.554688 0-30.019531 13.46875-30.019531 30.019531v270.035157h-21.652344c-4.140625 0-7.496094 3.355468-7.496094 7.496093v45.019531c0 17.667969 14.375 32.042969 32.042969 32.042969h447.914062c17.667969 0 32.042969-14.375 32.042969-32.042969v-45.019531c0-4.140625-3.355469-7.496093-7.496094-7.496093zm-460.359375-270.035157c0-8.285156 6.738281-15.023437 15.023438-15.023437h393.667969c8.28125 0 15.023437 6.738281 15.023437 15.023437v270.035157h-24.5v-248.703126c0-8.707031-7.085937-15.792968-15.792969-15.792968h-343.128906c-8.710938 0-15.796875 7.085937-15.796875 15.792968v169.847657c0 4.140625 3.355469 7.496093 7.5 7.496093 4.140625 0 7.496094-3.355468 7.496094-7.496093v-169.847657c0-.441406.359375-.800781.800781-.800781h343.128906c.4375 0 .796875.359375.796875.800781v248.703126h-344.726562v-30.902344c0-4.140625-3.355469-7.496094-7.496094-7.496094-4.144531 0-7.5 3.355469-7.5 7.496094v30.902344h-24.5v-270.035157zm283.898438 285.027344-6.523438 14.9375h-131.039062l-6.523438-14.9375zm168.960937 37.523437c0 9.402344-7.644531 17.046876-17.046875 17.046876h-447.914062c-9.402344 0-17.046875-7.644532-17.046875-17.046876v-37.519531h152.597656l9.796875 22.417969c1.992187 4.5625 6.5 7.511719 11.476563 7.511719h134.265624c4.980469 0 9.484376-2.949219 11.476563-7.511719l9.796875-22.417969h152.597656zm0 0"/><path d="m202.355469 207.398438h107.289062c9.367188 0 17.753907-4.84375 22.4375-12.953126 4.683594-8.109374 4.683594-17.796874 0-25.90625l-50.210937-86.964843c-5.398438-9.355469-15.070313-14.9375-25.871094-14.9375s-20.472656 5.582031-25.871094 14.9375l-12.535156 21.707031c-2.070312 3.585938-.839844 8.171875 2.746094 10.242188 3.582031 2.070312 8.167968.84375 10.238281-2.742188l12.535156-21.710938c2.691407-4.65625 7.507813-7.4375 12.886719-7.4375s10.199219 2.78125 12.886719 7.4375l50.210937 86.964844c1.972656 3.417969 1.972656 7.496094 0 10.914063s-5.507812 5.457031-9.453125 5.457031h-107.289062c-3.945313 0-7.480469-2.039062-9.453125-5.457031-1.972656-3.414063-1.972656-7.496094 0-10.914063l14.632812-25.34375c2.074219-3.585937.84375-8.171875-2.742187-10.242187-3.589844-2.070313-8.171875-.84375-10.242188 2.742187l-14.632812 25.347656c-4.683594 8.113282-4.683594 17.796876 0 25.90625 4.683593 8.113282 13.070312 12.953126 22.4375 12.953126zm0 0"/><path d="m263.492188 114.382812c0-4.140624-3.355469-7.496093-7.496094-7.496093s-7.5 3.355469-7.5 7.496093v41.25c0 4.140626 3.359375 7.496094 7.5 7.496094s7.496094-3.355468 7.496094-7.496094zm0 0"/><path d="m248.761719 174.867188c-.25 2.199218.34375 4.601562 1.941406 6.195312 2.738281 2.730469 7.828125 2.769531 10.597656 0 1.757813-1.757812 2.449219-4.367188 2.011719-6.761719-1.464844-8.003906-13.644531-7.453125-14.550781.566407zm0 0"/></svg>